<svg width="55" height="55" viewBox="0 0 55 55" fill="none" xmlns="http://www.w3.org/2000/svg">
<rect x="0.5" y="0.5" width="54" height="54" rx="4.5" stroke="#FFC379"/>
<path d="M45.0575 20.9764H43.9392V15.6656C43.9392 15.6323 43.9337 15.5992 43.9293 15.5653C43.9275 15.3547 43.8593 15.1474 43.7126 14.9835L34.7321 4.8894C34.7295 4.88656 34.7267 4.88572 34.7249 4.88313C34.6714 4.82403 34.609 4.77513 34.543 4.733C34.5234 4.71988 34.5037 4.70909 34.4832 4.69797C34.4261 4.66746 34.3654 4.6418 34.303 4.62333C34.2861 4.61898 34.271 4.61212 34.2541 4.60761C34.1861 4.5919 34.1157 4.58203 34.0445 4.58203H11.9736C10.9657 4.58203 10.147 5.38862 10.147 6.37945V20.9759H9.02879C7.58699 20.9759 6.41797 22.1258 6.41797 23.5447V36.9037C6.41797 38.322 7.58699 39.473 9.02879 39.473H10.147V48.618C10.147 49.6089 10.9657 50.4154 11.9736 50.4154H42.1125C43.1195 50.4154 43.9392 49.6089 43.9392 48.618V39.4731H45.0575C46.4988 39.4731 47.668 38.3225 47.668 36.9042V23.5452C47.6681 22.1259 46.4988 20.9764 45.0575 20.9764ZM11.9736 6.37945H33.1311V15.5752C33.1311 16.0717 33.5404 16.4739 34.0444 16.4739H42.1125V20.9763H11.9736V6.37945ZM25.724 30.7617C23.4574 29.985 21.9807 28.751 21.9807 26.8003C21.9807 24.5095 23.9228 22.7571 27.1401 22.7571C28.6783 22.7571 29.8116 23.0757 30.6204 23.4348L29.9332 25.8841C29.3869 25.6243 28.4157 25.2461 27.0796 25.2461C25.7444 25.2461 25.0969 25.8437 25.0969 26.5405C25.0969 27.3971 25.8655 27.7751 27.6268 28.4324C30.0344 29.3084 31.1677 30.5422 31.1677 32.4343C31.1677 34.6837 29.4074 36.5961 25.6635 36.5961C24.1056 36.5961 22.5671 36.1968 21.7984 35.7794L22.4254 33.2703C23.2555 33.6894 24.5301 34.1067 25.8459 34.1067C27.2621 34.1067 28.0111 33.5292 28.0111 32.6525C28.0107 31.8157 27.3628 31.3383 25.724 30.7617ZM9.65582 29.885C9.65582 25.3057 12.9752 22.7571 17.1022 22.7571C18.7012 22.7571 19.9152 23.0757 20.462 23.3547L19.834 25.7635C19.207 25.5057 18.3361 25.2671 17.2437 25.2671C14.7952 25.2671 12.8937 26.7195 12.8937 29.7058C12.8937 32.3939 14.5121 34.086 17.265 34.086C18.1949 34.086 19.2271 33.8873 19.834 33.6482L20.2998 36.0177C19.733 36.2969 18.4585 36.5961 16.7991 36.5961C12.0843 36.5962 9.65582 33.7079 9.65582 29.885ZM42.1125 48.1308H11.9736V39.4731H42.1125V48.1308ZM40.0723 36.3961H36.4705L32.0997 22.9764H35.4797L37.1384 28.6519C37.6039 30.244 38.0286 31.7771 38.3532 33.4499H38.4134C38.7573 31.8367 39.1818 30.2439 39.6474 28.7108L41.3878 22.9764H44.6669L40.0723 36.3961Z" fill="#FFC379"/>
</svg>
