<svg width="30" height="30" viewBox="0 0 30 30" fill="none" xmlns="http://www.w3.org/2000/svg">
<path d="M27.7532 5.17188H2.24678C1.00588 5.17188 0 6.17775 0 7.41865V22.5803C0 23.8212 1.00588 24.8271 2.24678 24.8271H27.7532C28.9941 24.8271 30 23.8212 30 22.5803V7.41865C30 6.17775 28.9941 5.17188 27.7532 5.17188Z" fill="#41479B"/>
<path d="M29.9689 7.04728C29.7918 5.98328 28.8675 5.17188 27.7532 5.17188H27.1686L17.5862 11.45V5.17193H12.4138V11.4501L2.83137 5.17193H2.24678C1.1325 5.17193 0.208184 5.98328 0.0311133 7.04734L8.22123 12.4134H0V17.5858H8.22123L0.0311133 22.9517C0.208184 24.0157 1.1325 24.8271 2.24678 24.8271H2.83137L12.4138 18.5489V24.8271H17.5862V18.5489L27.1686 24.8271H27.7532C28.8675 24.8271 29.7918 24.0157 29.9689 22.9517L21.7788 17.5857H30V12.4132H21.7788L29.9689 7.04728Z" fill="#F5F5F5"/>
<path d="M16.5517 5.17188H13.4483V13.4477H0V16.5512H13.4483V24.827H16.5517V16.5512H30V13.4477H16.5517V5.17188Z" fill="#FF4B55"/>
<path d="M1.45131 24.6825L12.3839 17.5859H10.4838L0.539062 24.0413C0.782402 24.3253 1.09512 24.5479 1.45131 24.6825Z" fill="#FF4B55"/>
<path d="M20.2946 17.5859H18.3945L28.9834 24.4593C29.2797 24.2647 29.5269 24.0018 29.7033 23.6932L20.2946 17.5859Z" fill="#FF4B55"/>
<path d="M0.238281 6.41209L9.48027 12.4113H11.3804L0.907773 5.61328C0.626582 5.82258 0.396484 6.09621 0.238281 6.41209Z" fill="#FF4B55"/>
<path d="M19.486 12.4122L29.449 5.94492C29.203 5.66186 28.8878 5.44061 28.5291 5.30859L17.5859 12.4122H19.486Z" fill="#FF4B55"/>
</svg>
