<svg width="60" height="60" viewBox="0 0 60 60" fill="none" xmlns="http://www.w3.org/2000/svg">
<rect x="0.5" y="0.5" width="59" height="59" rx="29.5" fill="url(#paint0_linear_374_61)"/>
<rect x="0.5" y="0.5" width="59" height="59" rx="29.5" stroke="white"/>
<path d="M17.5 17.5L13.75 13.75M37.5 17.5L41.25 13.75M13.75 41.25L17.5 37.5M27.5 12.5V7.5M12.5 27.5H7.5M42.9007 42.4718L52.6298 38.6648C53.6895 38.2503 53.689 36.7508 52.6293 36.3365L29.248 27.1997C28.2332 26.8032 27.2323 27.8043 27.6288 28.819L36.7655 52.2003C37.1797 53.26 38.6792 53.2605 39.0937 52.2008L42.9007 42.4718Z" stroke="white" stroke-width="3" stroke-linecap="round" stroke-linejoin="round"/>
<defs>
<linearGradient id="paint0_linear_374_61" x1="7.5" y1="6.5" x2="49" y2="53" gradientUnits="userSpaceOnUse">
<stop offset="0.0721154" stop-color="#FFD198" stop-opacity="0.8"/>
<stop offset="0.442308" stop-color="#9ED9D6" stop-opacity="0.8"/>
<stop offset="0.634001" stop-color="#618EB3" stop-opacity="0.7"/>
<stop offset="1" stop-color="#24428F"/>
</linearGradient>
</defs>
</svg>
