<svg width="60" height="60" viewBox="0 0 60 60" fill="none" xmlns="http://www.w3.org/2000/svg">
<path opacity="0.5" fill-rule="evenodd" clip-rule="evenodd" d="M55 30.0011C55 43.8081 43.807 55.0011 30 55.0011C27.0895 55.0011 24.295 54.5036 21.6972 53.5893C20.6035 50.9431 20 48.0426 20 45.0011C20 39.4481 22.0117 34.3648 25.346 30.4406C28.275 34.7046 33.186 37.5011 38.75 37.5011C44.6537 37.5011 49.8223 34.3526 52.668 29.6431C53.2663 28.6531 55 28.8443 55 30.0011Z" fill="#E4E4E4"/>
<path d="M5 30C5 40.8965 11.9713 50.1648 21.6972 53.5883C20.6035 50.942 20 48.0415 20 45C20 39.447 22.0117 34.3638 25.346 30.4395C23.5507 27.8258 22.5 24.6605 22.5 21.25C22.5 15.3461 25.6485 10.1776 30.358 7.3319C31.348 6.73368 31.1567 5 30 5C16.1929 5 5 16.1929 5 30Z" fill="#FFF8D4"/>
</svg>
