<svg width="55" height="55" viewBox="0 0 55 55" fill="none" xmlns="http://www.w3.org/2000/svg">
<rect x="0.5" y="0.5" width="54" height="54" rx="4.5" stroke="#FFC379"/>
<path fill-rule="evenodd" clip-rule="evenodd" d="M6.41797 12.962C6.41797 10.2724 8.6018 8.12677 11.29 8.16952L17.0826 8.26152C17.0826 8.26152 18.1684 5.5 21.9083 5.5C25.6479 5.5 26.4021 8.09213 26.4021 8.09213H32.7232C35.1166 8.09213 37.0725 10.0319 37.0917 12.4233L37.125 16.6172L40.373 16.5956C40.9702 16.5915 41.8224 16.9048 42.2734 17.2929L49.5988 23.5919C50.0512 23.9813 50.418 24.7833 50.418 25.3799V48.4217C50.418 48.5638 50.3899 48.7045 50.3354 48.8357C50.2809 48.9669 50.2009 49.086 50.1002 49.1862C49.9994 49.2864 49.8798 49.3657 49.7483 49.4195C49.6168 49.4734 49.4759 49.5007 49.3338 49.5L20.4043 49.3647C20.2268 49.3637 20.0513 49.3278 19.8878 49.2589C19.7242 49.19 19.5759 49.0895 19.4514 48.9631C19.3268 48.8368 19.2284 48.6872 19.1618 48.5228C19.0953 48.3583 19.0618 48.1824 19.0634 48.005L19.1303 40.5114L10.7483 40.5642C10.1806 40.5687 9.61777 40.4607 9.09214 40.2465C8.56652 40.0323 8.08857 39.7161 7.68593 39.3162C7.28328 38.9163 6.96391 38.4406 6.74628 37.9166C6.52865 37.3926 6.41706 36.8307 6.41797 36.2633V12.962ZM21.8014 12.3172C22.9974 12.3172 23.9671 11.4692 23.9671 10.4232C23.9671 9.37711 22.9974 8.52912 21.8014 8.52912C20.6054 8.52912 19.6357 9.37711 19.6357 10.4232C19.6357 11.4692 20.6054 12.3172 21.8014 12.3172ZM11.0753 13.0973L11.3982 35.5141C11.3993 35.5854 11.4145 35.6557 11.4428 35.7211C11.4711 35.7865 11.512 35.8457 11.5632 35.8953C11.6145 35.9449 11.675 35.9839 11.7413 36.0101C11.8076 36.0363 11.8784 36.0491 11.9497 36.0479L18.4216 35.9673C18.5661 35.9655 18.7042 35.9072 18.8062 35.8049C18.9083 35.7026 18.9662 35.5644 18.9676 35.4199L19.0299 20.8401C19.0302 20.2744 19.1437 19.7144 19.3636 19.1931C19.5835 18.6718 19.9054 18.1997 20.3104 17.8045C20.7155 17.4093 21.1954 17.099 21.7221 16.8918C22.2488 16.6846 22.8116 16.5847 23.3775 16.598L32.0586 16.7712C32.1295 16.7726 32.2 16.7599 32.2659 16.7338C32.3318 16.7077 32.3919 16.6688 32.4427 16.6193C32.4934 16.5698 32.5338 16.5107 32.5615 16.4454C32.5891 16.3802 32.6035 16.3101 32.6038 16.2392L32.6363 13.1084C32.637 12.964 32.5811 12.8251 32.4807 12.7214C32.3802 12.6177 32.2431 12.5574 32.0987 12.5534L26.5239 12.4244C26.5239 12.4244 25.1937 15.3106 21.8087 15.3106C18.4237 15.3106 17.1706 12.3069 17.1706 12.3069L11.6091 12.5342C11.4646 12.5408 11.3283 12.6032 11.2288 12.7081C11.1292 12.813 11.0742 12.9527 11.0753 13.0973ZM40.223 22.1381C39.7698 21.7493 39.4263 21.9157 39.4561 22.5172L39.6529 26.4884C39.6827 27.0864 40.1905 27.5735 40.7893 27.5754L45.5046 27.5921C46.1026 27.5943 46.2211 27.282 45.7666 26.8921L40.223 22.1381ZM23.9885 21.2141L23.9002 45.1805L45.6594 45.3347V31.9233H36.9455C35.7495 31.9233 34.7747 30.9559 34.7687 29.7567L34.7235 21.0239L23.9882 21.2143L23.9885 21.2141Z" fill="#FFC379"/>
</svg>
