<svg width="60" height="60" viewBox="0 0 60 60" fill="none" xmlns="http://www.w3.org/2000/svg">
<g clip-path="url(#clip0_378_128)">
<path d="M5.86957 31.9561H1.95656C0.875742 31.9561 0 31.0804 0 29.9995C0 28.9187 0.875742 28.043 1.95656 28.043H5.86957C6.95039 28.043 7.82613 28.9187 7.82613 29.9995C7.82613 31.0804 6.95039 31.9561 5.86957 31.9561Z" fill="#FFE14D"/>
<path d="M58.0453 31.9561H54.1323C53.0515 31.9561 52.1758 31.0804 52.1758 29.9995C52.1758 28.9187 53.0515 28.043 54.1323 28.043H58.0453C59.1255 28.043 60.0019 28.9187 60.0019 29.9995C60.0019 31.0804 59.1255 31.9561 58.0453 31.9561Z" fill="#FFCC33"/>
<path d="M5.71659 45.98C5.04018 45.98 4.38288 45.6291 4.02053 45.0011C3.47971 44.0655 3.80081 42.8688 4.73631 42.3288L8.12526 40.3722C9.06217 39.8314 10.2583 40.1519 10.7976 41.088C11.3384 42.0236 11.0173 43.2203 10.0818 43.7603L6.69299 45.7169C6.38467 45.8953 6.04846 45.98 5.71659 45.98Z" fill="#FFE14D"/>
<path d="M50.9002 19.8901C50.2238 19.8901 49.5665 19.5392 49.2041 18.9112C48.6633 17.9756 48.9844 16.7789 49.9199 16.2389L53.3087 14.2823C54.2464 13.741 55.4418 14.0632 55.9811 14.9981C56.5219 15.9337 56.2008 17.1305 55.2653 17.6705L51.8765 19.627C51.5684 19.8053 51.2319 19.8901 50.9002 19.8901Z" fill="#FFCC33"/>
<path d="M15.9743 56.2442C15.6425 56.2442 15.3063 56.1596 14.9981 55.9811C14.0624 55.441 13.7415 54.2444 14.2823 53.3088L16.2388 49.92C16.779 48.9856 17.9763 48.6627 18.9112 49.2042C19.8468 49.7443 20.1678 50.9409 19.627 51.8765L17.6704 55.2654C17.3081 55.8928 16.6508 56.2442 15.9743 56.2442Z" fill="#FFE14D"/>
<path d="M42.0642 11.0601C41.7323 11.0601 41.3961 10.9754 41.0879 10.797C40.1523 10.2569 39.8313 9.06025 40.3721 8.12463L42.3287 4.7358C42.8694 3.80146 44.066 3.47978 45.0009 4.02002C45.9365 4.56013 46.2575 5.75674 45.7167 6.69236L43.7601 10.0812C43.3979 10.7085 42.7406 11.0601 42.0642 11.0601Z" fill="#FFCC33"/>
<path d="M44.0247 56.2445C43.3483 56.2445 42.691 55.8936 42.3287 55.2656L40.3721 51.8768C39.8313 50.9412 40.1524 49.7445 41.0879 49.2045C42.0267 48.6632 43.2209 48.9842 43.7602 49.9202L45.7168 53.3091C46.2576 54.2447 45.9365 55.4414 45.001 55.9814C44.6928 56.1599 44.3565 56.2445 44.0247 56.2445Z" fill="#FFCC33"/>
<path d="M17.9348 11.0603C17.2584 11.0603 16.6011 10.7094 16.2388 10.0814L14.2822 6.69256C13.7415 5.75694 14.0625 4.56022 14.9981 4.02022C15.9362 3.4801 17.1311 3.80049 17.6704 4.736L19.627 8.12483C20.1678 9.06045 19.8467 10.2572 18.9112 10.7972C18.6029 10.9756 18.2667 11.0603 17.9348 11.0603Z" fill="#FFE14D"/>
<path d="M54.285 45.9796C53.9532 45.9796 53.617 45.895 53.3088 45.7165L49.9199 43.76C48.9843 43.2198 48.6633 42.0232 49.2042 41.0876C49.7443 40.1533 50.9409 39.831 51.8765 40.3718L55.2653 42.3284C56.2009 42.8685 56.5219 44.0651 55.9811 45.0007C55.6185 45.6282 54.9613 45.9796 54.285 45.9796Z" fill="#FFCC33"/>
<path d="M9.10146 19.8902C8.76958 19.8902 8.43337 19.8056 8.12517 19.6271L4.73634 17.6706C3.80071 17.1304 3.47974 15.9338 4.02056 14.9982C4.56138 14.0633 5.75681 13.7409 6.6929 14.2824L10.0817 16.239C11.0174 16.7791 11.3383 17.9757 10.7975 18.9113C10.4351 19.5386 9.77775 19.8902 9.10146 19.8902Z" fill="#FFE14D"/>
<path d="M29.9991 48.26C19.9299 48.26 11.7383 40.0684 11.7383 29.9991C11.7383 19.9299 19.9299 11.7383 29.9991 11.7383C40.0684 11.7383 48.26 19.9299 48.26 29.9991C48.26 40.0684 40.0684 48.26 29.9991 48.26Z" fill="#FFDF97"/>
<path d="M48.2609 29.9991C48.2609 19.9299 40.0692 11.7383 30 11.7383V48.26C40.0692 48.26 48.2609 40.0684 48.2609 29.9991Z" fill="#FFBB77"/>
<path d="M29.9995 7.82613C28.9187 7.82613 28.043 6.95039 28.043 5.86957V1.95656C28.043 0.875742 28.9187 0 29.9995 0C31.0804 0 31.9561 0.875742 31.9561 1.95656V5.86957C31.9561 6.95039 31.0804 7.82613 29.9995 7.82613Z" fill="#FFE14D"/>
<path d="M31.9566 5.86957V1.95656C31.9566 0.875742 31.0808 0 30 0V7.82613C31.0808 7.82613 31.9566 6.95039 31.9566 5.86957Z" fill="#FFCC33"/>
<path d="M29.9995 60.0019C28.9187 60.0019 28.043 59.1262 28.043 58.0453V54.1323C28.043 53.0515 28.9187 52.1758 29.9995 52.1758C31.0804 52.1758 31.9561 53.0515 31.9561 54.1323V58.0453C31.9561 59.1262 31.0804 60.0019 29.9995 60.0019Z" fill="#FFE14D"/>
<path d="M31.9566 58.0453V54.1323C31.9566 53.0515 31.0808 52.1758 30 52.1758V60.0019C31.0808 60.0019 31.9566 59.1262 31.9566 58.0453Z" fill="#FFCC33"/>
</g>
<defs>
<clipPath id="clip0_378_128">
<rect width="60" height="60" fill="white"/>
</clipPath>
</defs>
</svg>
